<svg width="50" height="50" viewBox="0 0 50 50" fill="none" xmlns="http://www.w3.org/2000/svg">
<path fill-rule="evenodd" clip-rule="evenodd" d="M25 0C11.1927 0 0 11.1929 0 25C0 38.8071 11.1927 50 25 50C38.8073 50 50 38.8071 50 25C50 11.1929 38.8073 0 25 0ZM28.825 16.9855L31 16.984V13.168C30.6231 13.1155 29.3319 13 27.8299 13C24.6945 13 22.547 14.9875 22.547 18.64V21.7855H19V26.053H22.547V37H26.7887V26.053H30.327L30.857 21.7855H26.7887V19.0615C26.7887 17.827 27.1194 16.9855 28.825 16.9855Z" fill="white"/>
</svg>
