<svg width="17" height="14" viewBox="0 0 17 14" fill="none" xmlns="http://www.w3.org/2000/svg">
<path d="M16.3335 1.65735C15.7456 1.93846 15.1126 2.12857 14.4487 2.21351C15.1267 1.77667 15.647 1.084 15.8921 0.258866C15.2573 0.663344 14.5557 0.957602 13.8063 1.11535C13.209 0.428747 12.3553 0 11.4106 0C9.59898 0 8.12923 1.58252 8.12923 3.53413C8.12923 3.8112 8.15741 4.08017 8.21376 4.33904C5.48558 4.1914 3.06731 2.78584 1.44731 0.645143C1.16463 1.16894 1.0031 1.77667 1.0031 2.42384C1.0031 3.6494 1.58254 4.73138 2.46345 5.3654C1.92626 5.34821 1.41913 5.18743 0.975863 4.92452V4.968C0.975863 6.68097 2.10752 8.10979 3.61013 8.43337C3.33496 8.51629 3.04477 8.55775 2.74519 8.55775C2.53388 8.55775 2.32727 8.53651 2.12724 8.49505C2.54515 9.89859 3.75663 10.9209 5.19351 10.9482C4.0703 11.8967 2.65409 12.462 1.11673 12.462C0.851897 12.462 0.589879 12.4458 0.333496 12.4134C1.78633 13.4145 3.51246 14 5.36537 14C11.404 14 14.705 8.61539 14.705 3.94467C14.705 3.79097 14.7022 3.63727 14.6966 3.4866C15.338 2.98808 15.8949 2.3662 16.3335 1.65735Z" fill="#1DA1FF"/>
</svg>
