<svg width="50" height="50" viewBox="0 0 50 50" fill="none" xmlns="http://www.w3.org/2000/svg">
<path fill-rule="evenodd" clip-rule="evenodd" d="M25 0C11.1929 0 0 11.1929 0 25C0 38.8071 11.1929 50 25 50C38.8073 50 50 38.8071 50 25C50 11.1929 38.8073 0 25 0ZM19.5034 11.7472C20.9256 11.6825 21.3801 11.6667 25.0013 11.6667H24.9971C28.6198 11.6667 29.0719 11.6825 30.4948 11.7472C31.9135 11.8122 32.8833 12.037 33.7333 12.3667C34.6115 12.707 35.3531 13.1625 36.0948 13.9042C36.8365 14.6453 37.2917 15.3892 37.6333 16.2661C37.9615 17.114 38.1865 18.0828 38.2531 19.5023C38.3167 20.9246 38.3333 21.379 38.3333 25.0001C38.3333 28.6213 38.3167 29.0746 38.2531 30.4969C38.1865 31.9157 37.9615 32.8849 37.6333 33.733C37.2917 34.6097 36.8365 35.3535 36.0948 36.0947C35.3531 36.8364 34.6104 37.293 33.7344 37.6336C32.8854 37.9633 31.9156 38.188 30.4958 38.253C29.074 38.3178 28.6208 38.3336 24.9996 38.3336C21.3787 38.3336 20.9246 38.3178 19.5023 38.253C18.0831 38.188 17.114 37.9633 16.2656 37.6336C15.3892 37.293 14.6453 36.8364 13.9045 36.0947C13.163 35.3535 12.7075 34.6097 12.3667 33.7327C12.0372 32.8849 11.8125 31.916 11.7472 30.4966C11.6828 29.0744 11.6667 28.6213 11.6667 25.0001C11.6667 21.379 11.6833 20.9243 11.747 19.502C11.8108 18.0831 12.0358 17.114 12.3664 16.2658C12.708 15.3892 13.1636 14.6453 13.9053 13.9042C14.6465 13.1628 15.3903 12.7072 16.2673 12.3667C17.1151 12.037 18.084 11.8122 19.5034 11.7472Z" fill="white"/>
<path fill-rule="evenodd" clip-rule="evenodd" d="M23.8054 14.07C24.0376 14.0696 24.2874 14.0697 24.557 14.0699L25.0014 14.07C28.5616 14.07 28.9835 14.0828 30.3898 14.1467C31.6898 14.2061 32.395 14.4233 32.8648 14.6058C33.4866 14.8475 33.9304 15.1363 34.3971 15.603C34.8637 16.0697 35.1523 16.5142 35.395 17.1363C35.5773 17.6058 35.795 18.3113 35.8543 19.6113C35.9179 21.0169 35.9314 21.4391 35.9314 24.9975C35.9314 28.5558 35.9179 28.978 35.8543 30.3835C35.795 31.6835 35.5773 32.389 35.395 32.8585C35.1533 33.4807 34.8637 33.9238 34.3971 34.3902C33.9304 34.8569 33.4877 35.1457 32.8648 35.3874C32.395 35.5707 31.6898 35.7874 30.3898 35.8469C28.9835 35.9107 28.5616 35.9247 25.0014 35.9247C21.4411 35.9247 21.0192 35.9107 19.6136 35.8469C18.3136 35.7869 17.6081 35.5697 17.1378 35.3872C16.5156 35.1455 16.0711 34.8565 15.6044 34.3899C15.1378 33.9232 14.8489 33.4799 14.6066 32.8574C14.4241 32.388 14.2066 31.6824 14.1475 30.3824C14.0836 28.9769 14.0708 28.5547 14.0708 24.9942C14.0708 21.4335 14.0836 21.0135 14.1475 19.608C14.2069 18.308 14.4241 17.6025 14.6066 17.1325C14.8483 16.5103 15.1378 16.0658 15.6044 15.5992C16.0711 15.1325 16.5156 14.8436 17.1378 14.6013C17.6078 14.418 18.3136 14.2013 19.6136 14.1417C20.8436 14.0861 21.3203 14.0695 23.8054 14.0667V14.07ZM32.1189 16.2838C31.2356 16.2838 30.5189 16.9997 30.5189 17.8833C30.5189 18.7667 31.2356 19.4833 32.1189 19.4833C33.0023 19.4833 33.7189 18.7667 33.7189 17.8833C33.7189 17 33.0023 16.2833 32.1189 16.2833V16.2838ZM18.1541 25.0005C18.1541 21.2192 21.22 18.1534 25.0012 18.1533C28.7825 18.1533 31.8481 21.2192 31.8481 25.0005C31.8481 28.7819 28.7825 31.8463 25.0014 31.8463C21.2201 31.8463 18.1541 28.7819 18.1541 25.0005Z" fill="white"/>
<path d="M25.0011 20.5557C27.4561 20.5557 29.4457 22.5455 29.4457 25.0002C29.4457 27.4547 27.4561 29.4447 25.0011 29.4447C22.5464 29.4447 20.5566 27.4547 20.5566 25.0002C20.5566 22.5455 22.5464 20.5557 25.0011 20.5557Z" fill="white"/>
</svg>
