<svg width="50" height="50" viewBox="0 0 50 50" fill="none" xmlns="http://www.w3.org/2000/svg">
<path fill-rule="evenodd" clip-rule="evenodd" d="M25 0C11.1927 0 0 11.1929 0 25C0 38.8071 11.1927 50 25 50C38.8073 50 50 38.8071 50 25C50 11.1929 38.8073 0 25 0ZM24.3042 21.1854L24.251 20.3203C24.0938 18.0782 25.475 16.0303 27.6615 15.2359C28.4656 14.9534 29.8292 14.9181 30.7219 15.1653C31.0708 15.2712 31.7354 15.6243 32.2083 15.9421L33.0646 16.5247L34.0094 16.2246C34.5333 16.0656 35.2333 15.8008 35.5479 15.6243C35.8448 15.4654 36.1073 15.3771 36.1073 15.4301C36.1073 15.7302 35.4604 16.7542 34.9188 17.3191C34.1844 18.1135 34.3937 18.1842 35.8802 17.6545C36.7719 17.3544 36.7896 17.3544 36.6146 17.6898C36.5094 17.8664 35.9677 18.4843 35.3906 19.0492C34.4115 20.0202 34.3583 20.1261 34.3583 20.9382C34.3583 22.1917 33.7646 24.8045 33.1698 26.2345C32.0677 28.9179 29.7073 31.6896 27.3469 33.0843C24.024 35.044 19.6 35.5382 15.875 34.3907C14.6333 34.0023 12.5 33.0136 12.5 32.8372C12.5 32.7842 13.1469 32.7135 13.9344 32.6959C15.5781 32.6606 17.2219 32.2016 18.6208 31.3895L19.5646 30.8246L18.4802 30.4539C16.9417 29.9242 15.5604 28.706 15.2104 27.5585C15.1052 27.1878 15.1406 27.1701 16.1198 27.1701L17.1344 27.1525L16.2771 26.7465C15.2625 26.2345 14.3365 25.3694 13.8813 24.4867C13.549 23.8511 13.1292 22.2446 13.2521 22.121C13.2865 22.0681 13.6542 22.174 14.074 22.3152C15.2802 22.7566 15.4375 22.6506 14.7385 21.9092C13.4271 20.5675 13.025 18.5725 13.6542 16.6835L13.951 15.8361L15.1052 16.9836C17.4667 19.2964 20.2469 20.6734 23.4292 21.0795L24.3042 21.1854Z" fill="white"/>
</svg>
